HIERARCHY
ROOT Hips
{
    OFFSET   0.000000   0.000000   0.000000
    CHANNELS 6 Xposition Yposition Zposition Zrotation Xrotation Yrotation
    JOINT Chest
    {
        OFFSET   0.000000   8.007230   0.000000
        CHANNELS 3 Zrotation Xrotation Yrotation
        JOINT Chest2
        {
            OFFSET   0.000000  22.077100   0.000000
            CHANNELS 3 Zrotation Xrotation Yrotation
            JOINT Neck
            {
                OFFSET   0.000000  23.255100   0.000000
                CHANNELS 3 Zrotation Xrotation Yrotation
                JOINT Head
                {
                    OFFSET   0.000000  14.370100   1.956600
                    CHANNELS 3 Zrotation Xrotation Yrotation
                    End Site
                    {
                        OFFSET   0.000000  19.566000   0.000000
                    }
                }
            }
            JOINT LeftCollar
            {
                OFFSET   3.911900  19.017000  -0.467063
                CHANNELS 3 Zrotation Xrotation Yrotation
                JOINT LeftShoulder
                {
                    OFFSET  10.383700   0.000000   0.000000
                    CHANNELS 3 Zrotation Xrotation Yrotation
                    JOINT LeftElbow
                    {
                        OFFSET  26.662100   0.001193   0.000980
                        CHANNELS 3 Zrotation Xrotation Yrotation
                        JOINT LeftWrist
                        {
                            OFFSET  28.869000  -0.000059  -0.000082
                            CHANNELS 3 Zrotation Xrotation Yrotation
                            JOINT LeftFinger0
                            {
                                OFFSET   2.044650  -2.323450   3.252850
                                CHANNELS 3 Zrotation Xrotation Yrotation
                                JOINT LeftFinger01
                                {
                                    OFFSET   3.088130   0.000000   0.000000
                                    CHANNELS 3 Zrotation Xrotation Yrotation
                                    JOINT LeftFinger02
                                    {
                                        OFFSET   2.639460   0.000000   0.000000
                                        CHANNELS 3 Zrotation Xrotation Yrotation
                                        End Site
                                        {
                                            OFFSET   2.582190   0.000000   0.000000
                                        }
                                    }
                                }
                            }
                            JOINT LeftFinger1
                            {
                                OFFSET   8.364480   0.000000   3.252850
                                CHANNELS 3 Zrotation Xrotation Yrotation
                                JOINT LeftFinger11
                                {
                                    OFFSET   4.646930   0.000000   0.000000
                                    CHANNELS 3 Zrotation Xrotation Yrotation
                                    JOINT LeftFinger12
                                    {
                                        OFFSET   2.323470   0.000000   0.000000
                                        CHANNELS 3 Zrotation Xrotation Yrotation
                                        End Site
                                        {
                                            OFFSET   2.273050   0.000000   0.000000
                                        }
                                    }
                                }
                            }
                            JOINT LeftFinger2
                            {
                                OFFSET   8.364490   0.000016   1.078090
                                CHANNELS 3 Zrotation Xrotation Yrotation
                                JOINT LeftFinger21
                                {
                                    OFFSET   5.111610   0.000000   0.000000
                                    CHANNELS 3 Zrotation Xrotation Yrotation
                                    JOINT LeftFinger22
                                    {
                                        OFFSET   2.788150   0.000016   0.000000
                                        CHANNELS 3 Zrotation Xrotation Yrotation
                                        End Site
                                        {
                                            OFFSET   2.727660   0.000000   0.000000
                                        }
                                    }
                                }
                            }
                            JOINT LeftFinger3
                            {
                                OFFSET   7.899780   0.000015  -1.078090
                                CHANNELS 3 Zrotation Xrotation Yrotation
                                JOINT LeftFinger31
                                {
                                    OFFSET   4.646930   0.000000   0.000000
                                    CHANNELS 3 Zrotation Xrotation Yrotation
                                    JOINT LeftFinger32
                                    {
                                        OFFSET   2.323470   0.000000   0.000000
                                        CHANNELS 3 Zrotation Xrotation Yrotation
                                        End Site
                                        {
                                            OFFSET   2.273050   0.000000   0.000000
                                        }
                                    }
                                }
                            }
                            JOINT LeftFinger4
                            {
                                OFFSET   7.435090   0.000000  -3.252850
                                CHANNELS 3 Zrotation Xrotation Yrotation
                                JOINT LeftFinger41
                                {
                                    OFFSET   3.717550   0.000000   0.000000
                                    CHANNELS 3 Zrotation Xrotation Yrotation
                                    JOINT LeftFinger42
                                    {
                                        OFFSET   1.858770   0.000000   0.000000
                                        CHANNELS 3 Zrotation Xrotation Yrotation
                                        End Site
                                        {
                                            OFFSET   1.818440   0.000000   0.000000
                                        }
                                    }
                                }
                            }
                        }
                    }
                }
            }
            JOINT RightCollar
            {
                OFFSET  -3.911910  19.017000  -0.467062
                CHANNELS 3 Zrotation Xrotation Yrotation
                JOINT RightShoulder
                {
                    OFFSET -10.383700   0.000014   0.000000
                    CHANNELS 3 Zrotation Xrotation Yrotation
                    JOINT RightElbow
                    {
                        OFFSET -26.662100   0.001225   0.001091
                        CHANNELS 3 Zrotation Xrotation Yrotation
                        JOINT RightWrist
                        {
                            OFFSET -28.869000  -0.000020  -0.000085
                            CHANNELS 3 Zrotation Xrotation Yrotation
                            JOINT RightFinger0
                            {
                                OFFSET  -2.044650  -2.323490   3.252850
                                CHANNELS 3 Zrotation Xrotation Yrotation
                                JOINT RightFinger01
                                {
                                    OFFSET  -3.088130   0.000000   0.000000
                                    CHANNELS 3 Zrotation Xrotation Yrotation
                                    JOINT RightFinger02
                                    {
                                        OFFSET  -2.639460   0.000000   0.000000
                                        CHANNELS 3 Zrotation Xrotation Yrotation
                                        End Site
                                        {
                                            OFFSET  -2.582190   0.000000   0.000000
                                        }
                                    }
                                }
                            }
                            JOINT RightFinger1
                            {
                                OFFSET  -8.364480   0.000000   3.252850
                                CHANNELS 3 Zrotation Xrotation Yrotation
                                JOINT RightFinger11
                                {
                                    OFFSET  -4.646930   0.000000   0.000000
                                    CHANNELS 3 Zrotation Xrotation Yrotation
                                    JOINT RightFinger12
                                    {
                                        OFFSET  -2.323470   0.000000   0.000000
                                        CHANNELS 3 Zrotation Xrotation Yrotation
                                        End Site
                                        {
                                            OFFSET  -2.273050   0.000000   0.000000
                                        }
                                    }
                                }
                            }
                            JOINT RightFinger2
                            {
                                OFFSET  -8.364480   0.000000   1.078090
                                CHANNELS 3 Zrotation Xrotation Yrotation
                                JOINT RightFinger21
                                {
                                    OFFSET  -5.111620   0.000000   0.000000
                                    CHANNELS 3 Zrotation Xrotation Yrotation
                                    JOINT RightFinger22
                                    {
                                        OFFSET  -2.788160   0.000000   0.000000
                                        CHANNELS 3 Zrotation Xrotation Yrotation
                                        End Site
                                        {
                                            OFFSET  -2.727660   0.000000   0.000000
                                        }
                                    }
                                }
                            }
                            JOINT RightFinger3
                            {
                                OFFSET  -7.899780   0.000000  -1.078090
                                CHANNELS 3 Zrotation Xrotation Yrotation
                                JOINT RightFinger31
                                {
                                    OFFSET  -4.646930   0.000000   0.000000
                                    CHANNELS 3 Zrotation Xrotation Yrotation
                                    JOINT RightFinger32
                                    {
                                        OFFSET  -2.323470   0.000000   0.000000
                                        CHANNELS 3 Zrotation Xrotation Yrotation
                                        End Site
                                        {
                                            OFFSET  -2.273050   0.000000   0.000000
                                        }
                                    }
                                }
                            }
                            JOINT RightFinger4
                            {
                                OFFSET  -7.435090   0.000000  -3.252850
                                CHANNELS 3 Zrotation Xrotation Yrotation
                                JOINT RightFinger41
                                {
                                    OFFSET  -3.717550   0.000000   0.000000
                                    CHANNELS 3 Zrotation Xrotation Yrotation
                                    JOINT RightFinger42
                                    {
                                        OFFSET  -1.858760   0.000000   0.000000
                                        CHANNELS 3 Zrotation Xrotation Yrotation
                                        End Site
                                        {
                                            OFFSET  -1.818440   0.000000   0.000000
                                        }
                                    }
                                }
                            }
                        }
                    }
                }
            }
        }
    }
    JOINT LeftHip
    {
        OFFSET   9.783030   0.000000   0.000000
        CHANNELS 3 Zrotation Xrotation Yrotation
        JOINT LeftKnee
        {
            OFFSET   0.000063 -41.789100   0.000608
            CHANNELS 3 Zrotation Xrotation Yrotation
            JOINT LeftAnkle
            {
                OFFSET   0.000048 -41.133200  -0.000184
                CHANNELS 3 Zrotation Xrotation Yrotation
                JOINT LeftToe
                {
                    OFFSET   0.000000  -6.358960  14.674500
                    CHANNELS 3 Zrotation Xrotation Yrotation
                    End Site
                    {
                        OFFSET   0.000000   0.000000   3.913200
                    }
                }
            }
        }
    }
    JOINT RightHip
    {
        OFFSET  -9.783030   0.000000   0.000000
        CHANNELS 3 Zrotation Xrotation Yrotation
        JOINT RightKnee
        {
            OFFSET   0.000071 -41.789100   0.001239
            CHANNELS 3 Zrotation Xrotation Yrotation
            JOINT RightAnkle
            {
                OFFSET   0.000037 -41.133200  -0.000166
                CHANNELS 3 Zrotation Xrotation Yrotation
                JOINT RightToe
                {
                    OFFSET   0.000000  -6.358960  14.674500
                    CHANNELS 3 Zrotation Xrotation Yrotation
                    End Site
                    {
                        OFFSET   0.000000   0.000000   3.913200
                    }
                }
            }
        }
    }
}
MOTION
Frames: 5
Frame Time:   0.016667
  0.748119  90.081800   1.032110  -0.538162  -1.098770  -2.466990  -0.163517   0.442796  -0.609620  -0.322325   0.887299  -1.218020   2.102760   0.956195  -0.046566   3.454430   1.930010   6.420970  -2.959690   1.354120   3.420940 -75.386400  15.578800   4.678240  -3.400820  -3.591300 -15.706200  16.526400  -1.556460   7.138920  38.383300  22.057500 -57.130300 -23.642400   0.004516   0.002038  -6.821210   0.004550   0.007420 -32.726700   6.586410 -10.119800 -27.254100   0.000000  -0.008697 -19.077800   0.003524  -0.006006 -28.695600   1.011630  -1.847190 -39.359400  -0.003282  -0.000369 -26.213300   0.008395  -0.000244 -27.452100   0.271343  -0.520742 -28.908300   0.000142   0.000000 -19.253000   0.001522  -0.000000 -27.600600  -0.207664   0.397207 -41.402000   0.000422  -0.001595 -27.573700   0.012777  -0.001034   8.293560   2.735060   3.347600  71.590800   7.713000  -2.468660   2.846540  -5.632950   9.164210 -18.254400 -11.780700  -3.493610 -37.018700  33.178600  72.637900  30.229600   0.000111  -0.002006  10.114800  -0.003748  -0.001164  31.800000   1.028080   1.657430  26.030400   0.008302  -0.009328  18.221200   0.000832   0.003144  28.565700   0.016329   0.030008  36.796600   0.003234  -0.000634  24.506500   0.005381  -0.000376  28.491600  -2.858120  -5.250990  37.587700   0.001002  -0.002714  25.033400   0.003554   0.000798  41.631300  -3.978450  -4.463490  62.679500   0.003300   0.003724  41.744600   0.003290  -0.003307  -0.701276   2.166070   0.918008   0.317195   0.434327  12.492500  -4.747680  -3.693710   5.508270  -0.000000   0.000000   0.000000   1.664880   1.563900  -8.728690  -0.112815   3.128060  -7.532480 -10.348400  -0.006845  -0.112755   0.000000   0.000000  -0.000000
  0.769355  90.081800   1.040080  -0.537500  -1.076040  -2.483850  -0.163795   0.432594  -0.604996  -0.323025   0.866892  -1.208800   2.095580   0.975208  -0.046366   3.443910   1.968900   6.432550  -2.964500   1.353680   3.411690 -75.406300  15.559600   4.684780  -3.391680  -3.604260 -15.678800  16.544300  -1.567370   7.157840  38.349000  22.029000 -57.137900 -23.679700   0.004507   0.002048  -6.839830   0.004549   0.007420 -32.777500   6.601950 -10.123700 -27.297000   0.000000  -0.008696 -19.107800   0.003520  -0.006002 -28.695400   1.014620  -1.852500 -39.400800  -0.003284  -0.000359 -26.240900   0.008393  -0.000238 -27.452300   0.272810  -0.524309 -28.922900   0.000146   0.000000 -19.262700   0.001512  -0.000000 -27.606400  -0.204812   0.391675 -41.410600   0.000418  -0.001587 -27.579500   0.012775  -0.001027   8.294260   2.735080   3.333300  71.597500   7.721520  -2.466140   2.849120  -5.649290   9.172690 -18.281700 -11.803100  -3.475000 -36.995500  33.152900  72.634000  30.230200   0.000117  -0.001990  10.115100  -0.003743  -0.001158  31.841700   1.034870   1.665570  26.064100   0.008303  -0.009337  18.244800   0.000830   0.003142  28.565700   0.017232   0.031661  36.868200   0.003228  -0.000640  24.554200   0.005376  -0.000378  28.491400  -2.859210  -5.252750  37.652100   0.001002  -0.002723  25.076300   0.003547   0.000787  41.650000  -3.980180  -4.464710  62.707200   0.003295   0.003716  41.763000   0.003284  -0.003301  -0.703040   2.159960   0.918059   0.314295   0.423875  12.500500  -4.746700  -3.692190   5.515830  -0.000000   0.000000   0.000000   1.623750   1.538370  -8.732420  -0.073829   3.131280  -7.524910 -10.348400  -0.005076  -0.094261  -0.000000   0.000000   0.000000
  0.801863  90.081700   1.053500  -0.536666  -1.045620  -2.510410  -0.164071   0.422392  -0.600371  -0.323718   0.846486  -1.199580   2.082420   1.001910  -0.046166   3.423940   2.023430   6.462700  -2.973180   1.350550   3.402440 -75.435400  15.540300   4.691320  -3.379670  -3.633630 -15.638600  16.562300  -1.578290   7.176770  38.301600  21.991200 -57.162900 -23.719500   0.004495   0.002059  -6.859720   0.004547   0.007419 -32.851300   6.629680 -10.137000 -27.360000   0.000000  -0.008689 -19.152000   0.003511  -0.005995 -28.695000   1.022060  -1.865880 -39.460900  -0.003291  -0.000328 -26.281000   0.008388  -0.000221 -27.452400   0.277704  -0.534668 -28.946300   0.000157  -0.000000 -19.278200   0.001490  -0.000000 -27.616400  -0.197938   0.378391 -41.425700   0.000403  -0.001563 -27.589500   0.012771  -0.001009   8.294960   2.734950   3.319010  71.607000   7.746730  -2.453070   2.851000  -5.679270   9.192810 -18.324800 -11.839300  -3.445300 -36.970200  33.127300  72.630100  30.234700   0.000131  -0.001949  10.117300  -0.003731  -0.001139  31.888700   1.041660   1.673720  26.103200   0.008308  -0.009362  18.272200   0.000824   0.003138  28.565700   0.018136   0.033313  36.939700   0.003214  -0.000656  24.601900   0.005362  -0.000387  28.490100  -2.866790  -5.265080  37.716400   0.000999  -0.002744  25.119200   0.003530   0.000759  41.667300  -3.992300  -4.473290  62.734900   0.003277   0.003696  41.781500   0.003265  -0.003284  -0.706586   2.153840   0.918110   0.309054   0.404232  12.514500  -4.745390  -3.690630   5.528450   0.000000   0.000000   0.000000   1.564630   1.512820  -8.745440  -0.016300   3.134600  -7.504160 -10.349000  -0.000275  -0.066912   0.000000   0.000000  -0.000000
  0.822051  90.081700   1.064610  -0.533294  -1.036630  -2.528420  -0.162928   0.425996  -0.600640  -0.321387   0.853679  -1.200120   2.069040   1.012380  -0.046190   3.402170   2.044540   6.507380  -2.980850   1.340290   3.409130 -75.451600  15.570500   4.685250  -3.375330  -3.676100 -15.614400  16.545600  -1.577040   7.168840  38.280200  21.979100 -57.212600 -23.722500   0.004492   0.002061  -6.861210   0.004546   0.007427 -32.894100   6.658080 -10.164600 -27.397800   0.000000  -0.008672 -19.178500   0.003494  -0.005989 -28.694300   1.034060  -1.887690 -39.494200  -0.003304  -0.000278 -26.303200   0.008380  -0.000185 -27.451700   0.287736  -0.554005 -28.966800   0.000170   0.000030 -19.291900   0.001463   0.000032 -27.627800  -0.187186   0.357667 -41.442700   0.000377  -0.001520 -27.600800   0.012766  -0.000984   8.295170   2.729100   3.320710  71.612000   7.785840  -2.425350   2.847920  -5.712610   9.224800 -18.352900 -11.872800  -3.419560 -36.962900  33.166400  72.665800  30.273200   0.000153  -0.001882  10.136600  -0.003715  -0.001103  31.896400   1.017260   1.634120  26.109400   0.008316  -0.009406  18.276600   0.000814   0.003131  28.565600  -0.007776  -0.014284  36.932400   0.003194  -0.000680  24.597000   0.005335  -0.000402  28.485300  -2.894020  -5.314570  37.680500   0.000991  -0.002778  25.095300   0.003503   0.000718  41.642100  -4.029820  -4.515390  62.702100   0.003243   0.003665  41.759700   0.003234  -0.003257  -0.711078   2.174980   0.917998   0.304230   0.379346  12.527700  -4.744900  -3.697920   5.539090   0.000000   0.000000   0.000000   1.537750   1.527960  -8.769430   0.010175   3.108810  -7.470440 -10.350500   0.007803  -0.052695   0.000000   0.000000  -0.000000
  0.838295  90.081700   1.075720  -0.528828  -1.035340  -2.544540  -0.160165   0.437033  -0.602528  -0.315734   0.875728  -1.203880   2.054970   1.017700  -0.046214   3.378930   2.055160   6.569530  -2.990130   1.322420   3.427120 -75.462000  15.633400   4.671390  -3.378000  -3.722530 -15.603500  16.515000  -1.568230   7.148000  38.270500  21.978400 -57.265800 -23.722900   0.004484   0.002062  -6.861420   0.004543   0.007442 -32.910700   6.683980 -10.195200 -27.415400   0.000000  -0.008650 -19.190800   0.003482  -0.005978 -28.693500   1.047250  -1.911730 -39.508900  -0.003321  -0.000208 -26.312900   0.008371  -0.000145 -27.450400   0.298767  -0.575069 -28.978500   0.000187   0.000089 -19.299700   0.001431   0.000087 -27.635000  -0.175489   0.335201 -41.453300   0.000344  -0.001464 -27.607900   0.012760  -0.000950   8.295610   2.714640   3.327470  71.613000   7.846480  -2.384290   2.841090  -5.742100   9.257440 -18.380800 -11.892300  -3.404910 -36.959300  33.231200  72.722200  30.326100   0.000174  -0.001803  10.163100  -0.003695  -0.001061  31.899200   0.982988   1.578620  26.110300   0.008327  -0.009461  18.277200   0.000799   0.003119  28.565500  -0.044813  -0.082318  36.916800   0.003167  -0.000712  24.586600   0.005301  -0.000421  28.480800  -2.920270  -5.365080  37.629300   0.000981  -0.002821  25.061100   0.003468   0.000663  41.605500  -4.063180  -4.562100  62.651100   0.003200   0.003624  41.725700   0.003193  -0.003220  -0.716219   2.209090   0.917825   0.298472   0.360796  12.540300  -4.744030  -3.709740   5.548880  -0.000000   0.000000   0.000000   1.520440   1.559850  -8.802970   0.027112   3.064230  -7.426490 -10.352800   0.017402  -0.041917   0.000000   0.000000   0.000000
